<svg width="139" height="139" viewBox="0 0 139 139" fill="none" xmlns="http://www.w3.org/2000/svg">
<circle cx="69.5" cy="69.5" r="69.5" fill="#7ADDCF"/>
<path d="M66.5 35.5076V35.6964C60.2336 36.2547 54.2239 38.5467 49.1582 42.3435C43.2888 46.7425 39.0027 52.9247 36.9417 59.9641C34.8807 67.0035 35.1558 74.5211 37.7258 81.391C40.2958 88.2609 45.0224 94.1133 51.1975 98.0716C57.3726 102.03 64.664 103.881 71.9795 103.348C79.2949 102.814 86.2407 99.9254 91.7765 95.1134C97.3123 90.3013 101.14 83.8254 102.687 76.6554C104.226 69.5193 103.423 62.0781 100.398 55.436C100.394 55.4183 100.396 55.3996 100.403 55.3825C100.412 55.36 100.429 55.3418 100.451 55.3317C100.473 55.3216 100.498 55.3204 100.521 55.3283C100.538 55.3342 100.552 55.3447 100.563 55.3585C103.605 62.0379 104.412 69.5209 102.864 76.6969C101.308 83.9066 97.4588 90.4184 91.8918 95.2567C86.3248 100.095 79.3402 102.999 71.984 103.535C64.6278 104.07 57.2961 102.208 51.0871 98.2271C44.8781 94.246 40.1261 88.3604 37.5428 81.452C34.9596 74.5435 34.6842 66.984 36.7578 59.9058C38.8315 52.8277 43.1426 46.6119 49.0454 42.1895C54.144 38.3696 60.1932 36.0654 66.5 35.5076Z" fill="white" stroke="white" stroke-width="6"/>
<path d="M80.2536 35.4687L74.5 40.2618V30.6757L80.2536 35.4687Z" fill="white" stroke="white" stroke-width="10"/>
</svg>
